PathFileType	4	(X/Y/Z)	C:/Users/beibeiliu/ov580/test_trc/User1\sequence.4_training_dense_right.trc
DataRate	CameraRate	NumFrames	NumMarkers	Units	OrigDataRate	OrigDataStartFrame	OrigNumFrames
120	120	12	19	mm	120	189	251
Frame#	Time	ThumbCMC			ThumbMCP			ThumbIP			ThumbTip			IndexMCP			IndexPIP			IndexTip			MiddleMCP			MiddlePIP			MiddleTip			RingMCP			RingPIP			RingTip			PinkyMCP			PinkyPIP			PinkyTip			BackHand1			BackHand2			BackHand3	
		X0	Y0	Z0	X1	Y1	Z1	X2	Y2	Z2	X3	Y3	Z3	X4	Y4	Z4	X5	Y5	Z5	X6	Y6	Z6	X7	Y7	Z7	X8	Y8	Z8	X9	Y9	Z9	X10	Y10	Z10	X11	Y11	Z11	X12	Y12	Z12	X13	Y13	Z13	X14	Y14	Z14	X15	Y15	Z15	X16	Y16	Z16	X17	Y17	Z17	X18	Y18	Z18	
188	1.56667	161.865	86.0005	29.044	148.132	82.3597	-11.5715	157.185	87.6868	-42.26	175.729	80.7419	-64.8236	175.161	131.736	-36.4796	165.138	103.143	-50.4677	165.731	88.4932	-19.6618	196.653	121.844	-45.9745	185.387	92.3605	-56.7097	182.987	78.5882	-16.1633	212.143	102.613	-45.0506	195.4	74.5142	-49.9573	193.977	65.1233	-15.0694	225.865	83.1556	-36.2222	203.478	62.7249	-32.6651	200.451	64.5531	0.961528	229.976	99.4132	18.2701	226.802	85.245	46.3324	200.303	105.86	40.3361	
189	1.575	153.157	84.1705	24.6779	143.336	76.3924	-14.766	148.028	77.8839	-46.5686	170.695	72.7278	-64.9918	162.649	124.61	-38.3464	152.001	95.0946	-53.8191	154.045	82.0121	-23.1749	184.019	116.668	-51.0867	169.665	83.2201	-56.3524	173.991	73.1509	-20.015	200.579	98.0201	-52.4858	185.297	70.2087	-50.8577	190.731	62.5484	-18.6195	222.009	80.8977	-40.2521	198.201	60.9474	-33.3454	197.661	63.4413	-4.39634	223.589	104.369	11.625	221.825	88.7619	43.1687	188.72	108.44	34.2269	
190	1.58333	150.584	79.7317	26.7157	139.487	69.6161	-14.426	143.011	67.3435	-43.4612	166.365	64.1966	-66.4745	150.562	116.982	-45.0554	145.081	86.7852	-56.9887	150.435	75.1517	-22.5386	176.081	110.878	-53.2346	166.75	74.7442	-57.8461	173.5	70.8829	-18.9519	192.292	92.3563	-56.1907	180.991	64.2466	-52.1458	186.119	61.9766	-15.6312	212.24	81.7855	-42.6844	194.693	56.9433	-35.8457	195.179	62.0549	-5.19089	216.152	107.035	2.96971	217.8	92.2779	39.9981	181.123	110.522	29.5936	
191	1.59167	148.357	81.8931	20.822	137.914	63.5578	-10.0775	139.28	59.689	-45.9031	158.88	52.4064	-64.7811	146.836	106.75	-52.8578	142.079	77.0938	-58.5182	145.961	68.4436	-25.7289	169.317	99.542	-61.7237	163.129	67.4824	-59.9792	167.942	67.1761	-19.7384	190.876	88.4073	-57.6193	177.348	57.7967	-50.9834	180.81	60.6454	-16.7616	209.996	74.1674	-47.2706	194.789	50.0204	-33.9356	191.544	65.4892	-3.63893	207.41	110.912	0.142986	211.963	98.0859	34.5644	179.22	111.843	20.4078	
192	1.6	143.459	81.0494	21.0483	131.743	56.5628	-11.4429	140.035	53.0521	-41.6163	158.667	43.0189	-61.2254	138.428	97.7421	-53.5231	142.105	67.1066	-59.0835	145.615	65.8111	-20.6565	165.551	90.8319	-63.8734	159.284	57.9879	-56.2075	164.58	63.296	-17.5882	183.328	77.9577	-60.0444	179.188	49.1679	-48.5953	178.243	59.791	-13.0407	202.446	69.7837	-46.3842	192.161	46.928	-29.5658	192.21	60.0845	-1.09707	202.978	109.229	-5.37168	206.553	104.751	27.791	172.151	113.035	20.9615	
193	1.60833	143.829	79.973	23.4823	132.887	53.3475	-11.8733	138.206	42.3639	-34.4883	160.636	34.4005	-57.0337	138.027	89.7462	-54.1164	138.938	56.2476	-56.1079	141.812	61.7313	-18.8262	161.134	81.0698	-63.6352	157.925	50.6462	-56.1279	162.65	59.4714	-17.5645	185.661	74.1515	-57.6112	175.19	43.8592	-42.139	178.053	57.3835	-9.43316	207.926	65.5462	-43.7839	193.352	42.8702	-23.8896	191.796	61.9025	2.49495	201.659	110.751	-11.7521	208.031	108.464	27.8542	168.919	113.589	16.8273	
194	1.61667	138.928	79.5249	22.8242	131.581	49.3081	-7.63194	138.843	37.6659	-34.7887	161.887	29.8468	-50.5575	138.799	78.7764	-57.7323	139.794	47.6535	-50.7862	146.731	58.0556	-18.1161	162.732	72.9139	-64.5902	162.795	42.7978	-49.5098	164.665	58.0435	-13.6177	184.212	66.2529	-55.9377	179.738	39.0807	-39.0332	181.255	52.6672	-8.39424	201.111	60.8176	-42.2312	195.512	40.7764	-23.6841	186.371	59.5955	1.29805	195.934	108.531	-13.0942	202.432	112.834	24.4559	163.784	115.194	11.0339	
195	1.625	139.64	81.6346	19.6167	134.04	49.806	-6.57236	141.278	35.579	-28.3752	164.377	28.8568	-44.5224	138.423	72.0887	-56.9075	139.363	41.9012	-47.801	139.98	57.4542	-13.5525	159.811	67.6331	-62.0029	160.624	38.3108	-44.4276	167.121	56.2912	-11.8503	186.012	59.8225	-53.5956	180.299	35.4917	-35.0509	179.282	52.7701	-4.49373	203.629	57.2983	-40.1412	196.503	38.4615	-19.2524	184.587	61.8822	5.47116	192.282	107.545	-10.956	199.963	113.157	22.5807	163.718	113.875	9.64552	
196	1.63333	138.026	81.5752	21.1281	134.032	48.5812	-4.3799	142.95	33.4322	-25.4657	164.718	21.501	-42.0776	137.753	67.024	-57.4881	141.173	38.6666	-45.4424	140.396	53.9533	-12.8062	162.532	61.2462	-60.2845	163.045	34.4835	-39.5295	164.61	60.4984	-7.62922	183.543	58.2754	-52.1871	182.035	32.502	-29.6893	180.882	51.9316	-1.68032	202.036	58.2621	-36.9974	194.662	39.3651	-12.6547	187.416	57.2951	10.7176	195.964	109.032	-15.7441	199.257	115.473	24.0143	162.288	114.002	6.17153	
197	1.64167	137.263	82.491	22.8586	132.438	46.664	-3.44411	141.862	30.4097	-25.009	164.743	20.5679	-35.278	139.517	65.4173	-54.939	143.368	35.2581	-40.7444	145.376	52.431	-12.7811	162.123	62.6258	-57.6733	162.753	32.3711	-40.1104	165.489	60.6976	-6.60628	183.425	56.2073	-49.2103	182.55	31.9416	-24.6194	177.416	50.7381	0.110015	208.089	57.3906	-34.8868	194.825	39.1523	-10.6675	185.939	60.5553	8.12697	192.691	106.589	-15.3007	193.489	117.584	24.254	157.165	116.175	5.07798	
198	1.65	138.07	84.5144	22.9403	133.385	49.7914	4.41716	142.064	30.6591	-19.9488	167.265	16.5764	-35.1011	139.014	65.7513	-53.3332	145.184	33.8836	-39.4098	140.531	53.5226	-8.64115	168.126	57.8987	-56.2648	161.199	30.9034	-34.1311	163.379	57.6869	-4.3656	188.06	54.4171	-45.8802	180.956	30.0712	-21.2586	176.588	49.7918	1.27007	206.84	54.0236	-31.8438	195.825	37.8885	-7.02042	186.773	58.7475	12.2428	193.866	106.395	-11.8322	193.292	119.544	19.2357	161.541	115.385	5.97259	
199	1.65833	137.832	85.511	20.6562	131.59	47.8577	2.0044	143.748	31.4163	-18.8276	165.695	18.2441	-28.6597	143.314	60.2154	-52.2801	141.17	32.3644	-39.9699	142.967	50.1108	-8.75334	166.85	54.9101	-54.3718	162.121	29.5088	-33.6164	166.163	58.7665	-3.5189	188.545	51.6121	-43.2967	178.303	29.1605	-19.7069	178.782	52.9147	5.61411	208.997	54.0841	-28.2185	193.843	36.4143	-4.33011	185.282	60.6953	13.2277	196.93	104.942	-13.5547	195.715	119.599	23.3998	157.585	117.519	5.56027	
